<svg width="25" height="24" viewBox="0 0 25 24" fill="none" xmlns="http://www.w3.org/2000/svg">
<path d="M22.6119 14.9186H20.582V12.0425C20.582 11.7883 20.4751 11.5444 20.2848 11.3646C20.0944 11.1848 19.8363 11.0838 19.5671 11.0838H13.4776V9.16647H15.5074C15.7766 9.16647 16.0347 9.06546 16.2251 8.88567C16.4154 8.70588 16.5223 8.46204 16.5223 8.20778V2.45565C16.5223 2.20139 16.4154 1.95755 16.2251 1.77776C16.0347 1.59797 15.7766 1.49696 15.5074 1.49696H9.41786C9.14869 1.49696 8.89054 1.59797 8.7002 1.77776C8.50987 1.95755 8.40294 2.20139 8.40294 2.45565V8.20778C8.40294 8.46204 8.50987 8.70588 8.7002 8.88567C8.89054 9.06546 9.14869 9.16647 9.41786 9.16647H11.4477V11.0838H5.35816C5.08899 11.0838 4.83084 11.1848 4.6405 11.3646C4.45017 11.5444 4.34324 11.7883 4.34324 12.0425V14.9186H2.31339C2.04421 14.9186 1.78606 15.0196 1.59573 15.1994C1.40539 15.3792 1.29846 15.623 1.29846 15.8773V21.6294C1.29846 21.8837 1.40539 22.1275 1.59573 22.3073C1.78606 22.4871 2.04421 22.5881 2.31339 22.5881H8.40294C8.67211 22.5881 8.93026 22.4871 9.1206 22.3073C9.31093 22.1275 9.41786 21.8837 9.41786 21.6294V15.8773C9.41786 15.623 9.31093 15.3792 9.1206 15.1994C8.93026 15.0196 8.67211 14.9186 8.40294 14.9186H6.37309V13.0012H18.5522V14.9186H16.5223C16.2532 14.9186 15.995 15.0196 15.8047 15.1994C15.6143 15.3792 15.5074 15.623 15.5074 15.8773V21.6294C15.5074 21.8837 15.6143 22.1275 15.8047 22.3073C15.995 22.4871 16.2532 22.5881 16.5223 22.5881H22.6119C22.8811 22.5881 23.1392 22.4871 23.3296 22.3073C23.5199 22.1275 23.6268 21.8837 23.6268 21.6294V15.8773C23.6268 15.623 23.5199 15.3792 23.3296 15.1994C23.1392 15.0196 22.8811 14.9186 22.6119 14.9186ZM7.38801 16.836V20.6707H3.32831V16.836H7.38801ZM10.4328 7.24909V3.41434H14.4925V7.24909H10.4328ZM21.597 20.6707H17.5373V16.836H21.597V20.6707Z" fill="white"/>
</svg>
