<svg width="24" height="25" viewBox="0 0 24 25" fill="none" xmlns="http://www.w3.org/2000/svg">
<path d="M13 14.7291H9C8.73478 14.7291 8.48043 14.8344 8.29289 15.022C8.10536 15.2095 8 15.4638 8 15.7291C8 15.9943 8.10536 16.2486 8.29289 16.4362C8.48043 16.6237 8.73478 16.7291 9 16.7291H13C13.2652 16.7291 13.5196 16.6237 13.7071 16.4362C13.8946 16.2486 14 15.9943 14 15.7291C14 15.4638 13.8946 15.2095 13.7071 15.022C13.5196 14.8344 13.2652 14.7291 13 14.7291ZM17 4.72906H15.82C15.6137 4.14552 15.2319 3.64006 14.7271 3.282C14.2222 2.92394 13.6189 2.7308 13 2.72906H11C10.3811 2.7308 9.7778 2.92394 9.27293 3.282C8.76807 3.64006 8.38631 4.14552 8.18 4.72906H7C6.20435 4.72906 5.44129 5.04514 4.87868 5.60774C4.31607 6.17035 4 6.93342 4 7.72906V19.7291C4 20.5247 4.31607 21.2878 4.87868 21.8504C5.44129 22.413 6.20435 22.7291 7 22.7291H17C17.7956 22.7291 18.5587 22.413 19.1213 21.8504C19.6839 21.2878 20 20.5247 20 19.7291V7.72906C20 6.93342 19.6839 6.17035 19.1213 5.60774C18.5587 5.04514 17.7956 4.72906 17 4.72906V4.72906ZM10 5.72906C10 5.46385 10.1054 5.20949 10.2929 5.02196C10.4804 4.83442 10.7348 4.72906 11 4.72906H13C13.2652 4.72906 13.5196 4.83442 13.7071 5.02196C13.8946 5.20949 14 5.46385 14 5.72906V6.72906H10V5.72906ZM18 19.7291C18 19.9943 17.8946 20.2486 17.7071 20.4362C17.5196 20.6237 17.2652 20.7291 17 20.7291H7C6.73478 20.7291 6.48043 20.6237 6.29289 20.4362C6.10536 20.2486 6 19.9943 6 19.7291V7.72906C6 7.46385 6.10536 7.20949 6.29289 7.02196C6.48043 6.83442 6.73478 6.72906 7 6.72906H8V7.72906C8 7.99428 8.10536 8.24864 8.29289 8.43617C8.48043 8.62371 8.73478 8.72906 9 8.72906H15C15.2652 8.72906 15.5196 8.62371 15.7071 8.43617C15.8946 8.24864 16 7.99428 16 7.72906V6.72906H17C17.2652 6.72906 17.5196 6.83442 17.7071 7.02196C17.8946 7.20949 18 7.46385 18 7.72906V19.7291ZM15 10.7291H9C8.73478 10.7291 8.48043 10.8344 8.29289 11.022C8.10536 11.2095 8 11.4638 8 11.7291C8 11.9943 8.10536 12.2486 8.29289 12.4362C8.48043 12.6237 8.73478 12.7291 9 12.7291H15C15.2652 12.7291 15.5196 12.6237 15.7071 12.4362C15.8946 12.2486 16 11.9943 16 11.7291C16 11.4638 15.8946 11.2095 15.7071 11.022C15.5196 10.8344 15.2652 10.7291 15 10.7291Z" fill="white"/>
</svg>
