<svg width="18" height="20" viewBox="0 0 18 20" fill="none" xmlns="http://www.w3.org/2000/svg">
<path fill-rule="evenodd" clip-rule="evenodd" d="M9.03581 -0.000213623H8.96481C5.59481 -0.000213623 2.50681 2.44479 2.20681 5.68079C2.18681 5.91179 2.17281 6.14879 2.16381 6.40379L2.15181 6.99979L2.14981 7.53379L2.16481 7.47379C2.02501 8.15295 1.70439 8.78176 1.23681 9.29379L1.16881 9.37979C0.767718 9.98923 0.537387 10.6951 0.501806 11.4238L0.500806 11.6618C0.483056 12.6304 0.811398 13.5736 1.42681 14.3218C2.23576 15.1885 3.3329 15.7307 4.51281 15.8468C7.48981 16.1698 10.5018 16.1698 13.4868 15.8458C14.6497 15.7371 15.7331 15.208 16.5338 14.3578C17.1272 13.6581 17.4672 12.7787 17.4988 11.8618L17.4998 11.4588C17.4718 10.7188 17.2395 10.001 16.8288 9.38479L16.7668 9.30479L16.6168 9.12779C16.2786 8.70588 16.0311 8.21872 15.8898 7.69679L15.8448 7.50979L15.8348 7.31379C15.8321 7.21081 15.8307 7.1078 15.8308 7.00479V6.33179C15.8303 6.11583 15.821 5.89998 15.8028 5.68479C15.4928 2.44279 12.4028 -0.000213623 9.03581 -0.000213623ZM8.96481 1.39479H9.03581C11.7338 1.39479 14.1938 3.34079 14.4308 5.81279C14.4448 5.97579 14.4508 6.12979 14.4528 6.36079L14.4558 7.26479C14.4588 7.40979 14.4638 7.52979 14.4738 7.66479L14.4868 7.75779L14.5518 8.03379C14.7438 8.76379 15.0888 9.44379 15.5648 10.0308L15.7028 10.1928L15.6868 10.1668C15.9508 10.5608 16.1008 11.0188 16.1218 11.4898V11.6538C16.1399 12.2998 15.9216 12.9303 15.5078 13.4268C14.9362 14.0185 14.1703 14.3842 13.3508 14.4568C10.4594 14.7713 7.54233 14.7716 4.65081 14.4578C3.81401 14.3793 3.03376 14.0011 2.45381 13.3928C2.06716 12.9057 1.86368 12.2985 1.87881 11.6768V11.4588L1.89681 11.2688C1.94158 10.9387 2.04774 10.6198 2.20981 10.3288L2.29381 10.1898C2.90728 9.50013 3.32809 8.66093 3.51381 7.75679L3.52881 7.61479L3.53481 6.69479L3.55081 6.22879C3.55881 6.08179 3.56781 5.94179 3.57981 5.80679C3.80781 3.34079 6.26681 1.39479 8.96481 1.39479V1.39479ZM11.6078 17.6908C11.4657 17.5747 11.283 17.5205 11.1006 17.5404C10.9182 17.5603 10.7514 17.6527 10.6378 17.7968C10.5358 17.9268 10.4158 18.0438 10.2828 18.1438C9.83725 18.496 9.26985 18.6565 8.70581 18.5898C8.14875 18.524 7.64055 18.2399 7.29281 17.7998C7.17993 17.6553 7.01376 17.5621 6.83157 17.5412C6.64938 17.5204 6.46644 17.5735 6.32381 17.6888C6.02575 17.9306 5.97678 18.3669 6.21381 18.6688C7.40683 20.1821 9.59968 20.4443 11.1158 19.2548C11.3328 19.0918 11.5358 18.8928 11.7128 18.6708C11.9504 18.37 11.9038 17.9344 11.6078 17.6908V17.6908Z" fill="#ffffff"/>
</svg>
