<svg width="16" height="20" viewBox="0 0 16 20" fill="none" xmlns="http://www.w3.org/2000/svg">
<path fill-rule="evenodd" clip-rule="evenodd" d="M8.00005 0.10202C6.5885 0.0980203 5.23362 0.657056 4.23559 1.65527C3.23756 2.65349 2.67878 4.00847 2.68305 5.42002C2.67905 6.83166 3.23805 8.18664 4.23624 9.18483C5.23443 10.183 6.5894 10.742 8.00105 10.738C9.41277 10.7423 10.7679 10.1834 11.7662 9.18512C12.7644 8.18688 13.3233 6.83175 13.319 5.42002C13.3236 4.00804 12.7646 2.6526 11.7661 1.65426C10.7676 0.655932 9.41203 0.0972184 8.00005 0.10202ZM8.00005 1.60202C9.01403 1.59747 9.9878 1.99827 10.7048 2.71527C11.4218 3.43227 11.8226 4.40604 11.818 5.42002C11.8223 6.43392 11.4214 7.40753 10.7045 8.12447C9.98756 8.84142 9.01395 9.2423 8.00005 9.23802C6.9864 9.24176 6.01321 8.84068 5.29654 8.12382C4.57987 7.40697 4.17904 6.43367 4.18305 5.42002C4.17877 4.40629 4.57951 3.43284 5.29624 2.71592C6.01297 1.99901 6.98632 1.59801 8.00005 1.60202V1.60202ZM8.00005 12.558C2.97005 12.558 0.123047 13.513 0.123047 16.218C0.123047 18.925 2.98305 19.898 8.00005 19.898L8.64405 19.892C13.271 19.811 15.877 18.824 15.877 16.238C15.877 13.59 13.141 12.601 8.32505 12.56L8.00005 12.558ZM8.00005 14.058C12.202 14.058 14.377 14.798 14.377 16.238C14.377 17.669 12.207 18.398 8.00005 18.398C3.79905 18.398 1.62305 17.658 1.62305 16.218C1.62305 14.824 3.67705 14.098 7.66305 14.06L8.00005 14.058Z" fill="#ffffff"/>
</svg>
