<svg width="24" height="25" viewBox="0 0 24 25" fill="none" xmlns="http://www.w3.org/2000/svg">
<path d="M19.91 16.3144H15.38C15.1148 16.3144 14.8604 16.4197 14.6729 16.6073C14.4854 16.7948 14.38 17.0492 14.38 17.3144C14.38 17.5796 14.4854 17.834 14.6729 18.0215C14.8604 18.209 15.1148 18.3144 15.38 18.3144H17.78C16.6769 19.4671 15.2544 20.2637 13.6952 20.6018C12.1359 20.9399 10.5112 20.804 9.02978 20.2116C7.54834 19.6193 6.27787 18.5975 5.38159 17.2776C4.48531 15.9576 4.00418 14.3998 4 12.8044C4 12.5392 3.89464 12.2848 3.70711 12.0973C3.51957 11.9097 3.26522 11.8044 3 11.8044C2.73478 11.8044 2.48043 11.9097 2.29289 12.0973C2.10536 12.2848 2 12.5392 2 12.8044C2.00529 14.7572 2.58222 16.6657 3.6596 18.2944C4.73699 19.9231 6.26767 21.2007 8.06274 21.9696C9.85782 22.7385 11.8387 22.9649 13.761 22.621C15.6833 22.2771 17.4628 21.3779 18.88 20.0344V21.8044C18.88 22.0696 18.9854 22.324 19.1729 22.5115C19.3604 22.699 19.6148 22.8044 19.88 22.8044C20.1452 22.8044 20.3996 22.699 20.5871 22.5115C20.7746 22.324 20.88 22.0696 20.88 21.8044V17.3044C20.8775 17.046 20.7752 16.7986 20.5943 16.6141C20.4135 16.4295 20.1683 16.3221 19.91 16.3144ZM12 2.80438C9.43639 2.81169 6.97349 3.8033 5.12 5.57438V3.80438C5.12 3.53917 5.01464 3.28481 4.82711 3.09728C4.63957 2.90974 4.38522 2.80438 4.12 2.80438C3.85478 2.80438 3.60043 2.90974 3.41289 3.09728C3.22536 3.28481 3.12 3.53917 3.12 3.80438V8.30438C3.12 8.5696 3.22536 8.82395 3.41289 9.01149C3.60043 9.19903 3.85478 9.30438 4.12 9.30438H8.62C8.88522 9.30438 9.13957 9.19903 9.32711 9.01149C9.51464 8.82395 9.62 8.5696 9.62 8.30438C9.62 8.03917 9.51464 7.78481 9.32711 7.59728C9.13957 7.40974 8.88522 7.30438 8.62 7.30438H6.22C7.32247 6.15225 8.74409 5.35588 10.3024 5.01749C11.8607 4.6791 13.4846 4.81413 14.9656 5.40524C16.4466 5.99636 17.7172 7.01659 18.6142 8.33499C19.5113 9.65338 19.9938 11.2098 20 12.8044C20 13.0696 20.1054 13.324 20.2929 13.5115C20.4804 13.699 20.7348 13.8044 21 13.8044C21.2652 13.8044 21.5196 13.699 21.7071 13.5115C21.8946 13.324 22 13.0696 22 12.8044C22 11.4912 21.7413 10.1908 21.2388 8.97755C20.7362 7.76429 19.9997 6.6619 19.0711 5.73331C18.1425 4.80473 17.0401 4.06813 15.8268 3.56559C14.6136 3.06304 13.3132 2.80438 12 2.80438V2.80438Z" fill="white"/>
</svg>
