<svg width="24" height="25" viewBox="0 0 24 25" fill="none" xmlns="http://www.w3.org/2000/svg">
<path d="M21 10.6057H17C16.7348 10.6057 16.4804 10.7111 16.2929 10.8986C16.1054 11.0861 16 11.3405 16 11.6057C16 11.8709 16.1054 12.1253 16.2929 12.3128C16.4804 12.5004 16.7348 12.6057 17 12.6057H21C21.2652 12.6057 21.5196 12.5004 21.7071 12.3128C21.8946 12.1253 22 11.8709 22 11.6057C22 11.3405 21.8946 11.0861 21.7071 10.8986C21.5196 10.7111 21.2652 10.6057 21 10.6057ZM13.3 12.3257C13.8336 11.8638 14.2616 11.2926 14.5549 10.6507C14.8482 10.0089 15 9.31142 15 8.60571C15 7.27963 14.4732 6.00786 13.5355 5.07018C12.5979 4.1325 11.3261 3.60571 10 3.60571C8.67392 3.60571 7.40215 4.1325 6.46447 5.07018C5.52678 6.00786 5 7.27963 5 8.60571C4.99999 9.31142 5.1518 10.0089 5.44513 10.6507C5.73845 11.2926 6.16642 11.8638 6.7 12.3257C5.30014 12.9596 4.11247 13.9832 3.27898 15.2743C2.4455 16.5653 2.00147 18.069 2 19.6057C2 19.8709 2.10536 20.1253 2.29289 20.3128C2.48043 20.5004 2.73478 20.6057 3 20.6057C3.26522 20.6057 3.51957 20.5004 3.70711 20.3128C3.89464 20.1253 4 19.8709 4 19.6057C4 18.0144 4.63214 16.4883 5.75736 15.3631C6.88258 14.2379 8.4087 13.6057 10 13.6057C11.5913 13.6057 13.1174 14.2379 14.2426 15.3631C15.3679 16.4883 16 18.0144 16 19.6057C16 19.8709 16.1054 20.1253 16.2929 20.3128C16.4804 20.5004 16.7348 20.6057 17 20.6057C17.2652 20.6057 17.5196 20.5004 17.7071 20.3128C17.8946 20.1253 18 19.8709 18 19.6057C17.9985 18.069 17.5545 16.5653 16.721 15.2743C15.8875 13.9832 14.6999 12.9596 13.3 12.3257V12.3257ZM10 11.6057C9.40666 11.6057 8.82664 11.4298 8.33329 11.1001C7.83994 10.7705 7.45542 10.3019 7.22836 9.75376C7.0013 9.20558 6.94189 8.60239 7.05764 8.02044C7.1734 7.4385 7.45912 6.90395 7.87868 6.48439C8.29824 6.06484 8.83279 5.77911 9.41473 5.66336C9.99667 5.5476 10.5999 5.60701 11.1481 5.83407C11.6962 6.06114 12.1648 6.44565 12.4944 6.939C12.8241 7.43235 13 8.01237 13 8.60571C13 9.40136 12.6839 10.1644 12.1213 10.727C11.5587 11.2896 10.7956 11.6057 10 11.6057Z" fill="white"/>
</svg>
