<svg width="25" height="24" viewBox="0 0 25 24" fill="none" xmlns="http://www.w3.org/2000/svg">
<path d="M16.2273 12.71C17.2077 11.9387 17.9233 10.8809 18.2746 9.68394C18.6258 8.48697 18.5952 7.21027 18.1871 6.03147C17.779 4.85267 17.0136 3.83039 15.9974 3.10686C14.9812 2.38332 13.7648 1.99451 12.5173 1.99451C11.2699 1.99451 10.0534 2.38332 9.03726 3.10686C8.02108 3.83039 7.25568 4.85267 6.84754 6.03147C6.43941 7.21027 6.40884 8.48697 6.76009 9.68394C7.11134 10.8809 7.82694 11.9387 8.80733 12.71C7.12741 13.383 5.66162 14.4994 4.56622 15.9399C3.47083 17.3805 2.78689 19.0913 2.58733 20.89C2.57289 21.0213 2.58445 21.1542 2.62136 21.2811C2.65826 21.4079 2.7198 21.5263 2.80244 21.6293C2.96935 21.8375 3.21211 21.9708 3.47733 22C3.74255 22.0292 4.00849 21.9518 4.21666 21.7849C4.42482 21.618 4.55816 21.3752 4.58733 21.11C4.80692 19.1552 5.73902 17.3498 7.20555 16.0388C8.67208 14.7278 10.5702 14.003 12.5373 14.003C14.5044 14.003 16.4026 14.7278 17.8691 16.0388C19.3356 17.3498 20.2677 19.1552 20.4873 21.11C20.5145 21.3557 20.6318 21.5827 20.8164 21.747C21.0011 21.9114 21.2401 22.0015 21.4873 22H21.5973C21.8595 21.9698 22.0991 21.8373 22.2639 21.6313C22.4287 21.4252 22.5054 21.1624 22.4773 20.9C22.2768 19.0962 21.5892 17.381 20.4882 15.9382C19.3872 14.4954 17.9142 13.3795 16.2273 12.71V12.71ZM12.5173 12C11.7262 12 10.9528 11.7654 10.2951 11.3259C9.63725 10.8864 9.12456 10.2616 8.82181 9.53074C8.51906 8.79983 8.43985 7.99557 8.59419 7.21964C8.74853 6.44372 9.12949 5.73099 9.6889 5.17158C10.2483 4.61217 10.961 4.2312 11.737 4.07686C12.5129 3.92252 13.3172 4.00173 14.0481 4.30448C14.779 4.60724 15.4037 5.11993 15.8432 5.77772C16.2827 6.43552 16.5173 7.20888 16.5173 8C16.5173 9.06087 16.0959 10.0783 15.3458 10.8284C14.5956 11.5786 13.5782 12 12.5173 12Z" fill="#ffffff"/>
</svg>
