<svg width="26" height="22" viewBox="0 0 26 22" fill="none" xmlns="http://www.w3.org/2000/svg">
<path d="M24.388 9.07016H23.1194V7.8718C23.1194 7.55397 22.9857 7.24917 22.7478 7.02443C22.5099 6.79969 22.1872 6.67344 21.8507 6.67344C21.5143 6.67344 21.1916 6.79969 20.9537 7.02443C20.7157 7.24917 20.5821 7.55397 20.5821 7.8718V9.07016H19.3134C18.977 9.07016 18.6543 9.19641 18.4163 9.42115C18.1784 9.64588 18.0448 9.95069 18.0448 10.2685C18.0448 10.5863 18.1784 10.8911 18.4163 11.1159C18.6543 11.3406 18.977 11.4669 19.3134 11.4669H20.5821V12.6652C20.5821 12.9831 20.7157 13.2879 20.9537 13.5126C21.1916 13.7373 21.5143 13.8636 21.8507 13.8636C22.1872 13.8636 22.5099 13.7373 22.7478 13.5126C22.9857 13.2879 23.1194 12.9831 23.1194 12.6652V11.4669H24.388C24.7245 11.4669 25.0472 11.3406 25.2851 11.1159C25.523 10.8911 25.6567 10.5863 25.6567 10.2685C25.6567 9.95069 25.523 9.64588 25.2851 9.42115C25.0472 9.19641 24.7245 9.07016 24.388 9.07016ZM14.6194 11.1313C15.2963 10.5779 15.8393 9.89329 16.2114 9.12411C16.5835 8.35493 16.7761 7.51913 16.7761 6.67344C16.7761 5.08431 16.1078 3.56028 14.9182 2.4366C13.7286 1.31292 12.1152 0.681641 10.4328 0.681641C8.75048 0.681641 7.13704 1.31292 5.94744 2.4366C4.75785 3.56028 4.08954 5.08431 4.08954 6.67344C4.08953 7.51913 4.28212 8.35493 4.65425 9.12411C5.02638 9.89329 5.56933 10.5779 6.24626 11.1313C4.47031 11.891 2.96356 13.1177 1.90616 14.6648C0.84875 16.2119 0.285437 18.0139 0.283569 19.8554C0.283569 20.1732 0.417231 20.478 0.65515 20.7028C0.89307 20.9275 1.21576 21.0538 1.55223 21.0538C1.88869 21.0538 2.21138 20.9275 2.4493 20.7028C2.68722 20.478 2.82088 20.1732 2.82088 19.8554C2.82088 17.9484 3.62285 16.1196 5.05037 14.7712C6.47789 13.4228 8.41401 12.6652 10.4328 12.6652C12.4516 12.6652 14.3878 13.4228 15.8153 14.7712C17.2428 16.1196 18.0448 17.9484 18.0448 19.8554C18.0448 20.1732 18.1784 20.478 18.4163 20.7028C18.6543 20.9275 18.977 21.0538 19.3134 21.0538C19.6499 21.0538 19.9726 20.9275 20.2105 20.7028C20.4484 20.478 20.5821 20.1732 20.5821 19.8554C20.5802 18.0139 20.0169 16.2119 18.9595 14.6648C17.9021 13.1177 16.3953 11.891 14.6194 11.1313V11.1313ZM10.4328 10.2685C9.68007 10.2685 8.94423 10.0577 8.31834 9.66264C7.69245 9.2676 7.20463 8.70613 6.91657 8.04922C6.6285 7.3923 6.55313 6.66945 6.69998 5.97207C6.84684 5.2747 7.20932 4.63411 7.7416 4.13133C8.27387 3.62855 8.95203 3.28616 9.69032 3.14744C10.4286 3.00872 11.1939 3.07992 11.8893 3.35202C12.5848 3.62412 13.1792 4.08491 13.5974 4.67612C14.0156 5.26733 14.2388 5.9624 14.2388 6.67344C14.2388 7.62691 13.8378 8.54133 13.1241 9.21554C12.4103 9.88975 11.4422 10.2685 10.4328 10.2685Z" fill="white"/>
</svg>
